<svg width="60" height="60" viewBox="0 0 60 60" fill="none" xmlns="http://www.w3.org/2000/svg">
<rect width="60" height="60" rx="5" fill="#033685"/>
<g clip-path="url(#clip0)">
<path d="M29.8317 12.0781L14.5517 20.7829C14.4593 20.8355 14.3827 20.9112 14.3295 21.0024C14.2763 21.0935 14.2485 21.1969 14.2488 21.3021V38.6976C14.2479 38.8038 14.2755 38.9084 14.3287 39.0008C14.3818 39.0932 14.4587 39.1701 14.5517 39.2239L29.8317 47.9216C29.9238 47.9741 30.0283 48.0017 30.1346 48.0017C30.2409 48.0017 30.3454 47.9741 30.4374 47.9216L45.7175 39.2239C45.8104 39.1701 45.8873 39.0932 45.9405 39.0008C45.9937 38.9084 46.0212 38.8038 46.0204 38.6976V21.3021C46.0207 21.1969 45.9929 21.0935 45.9397 21.0024C45.8865 20.9112 45.8099 20.8355 45.7175 20.7829L30.4374 12.0781C30.3454 12.0257 30.2409 11.998 30.1346 11.998C30.0283 11.998 29.9238 12.0257 29.8317 12.0781ZM40.7275 36.0307L30.1562 42.0615L19.5417 36.0307V23.9406L30.1562 17.9382L38.0883 22.4613L30.1562 26.9844V33.0153L40.7275 26.9844V36.0307Z" fill="white"/>
</g>
<defs>
<clipPath id="clip0">
<rect width="36" height="36" fill="white" transform="translate(12.0005 12)"/>
</clipPath>
</defs>
</svg>
